<mxfile host="app.diagrams.net" modified="2023-05-25T16:57:49.986Z" agent="Mozilla/5.0 (Windows NT 10.0; Win64; x64) AppleWebKit/537.36 (KHTML, like Gecko) Chrome/113.0.0.0 Safari/537.36" version="21.3.2" etag="3PU56Y6Lu-2N9KDpwnCO" type="github">
  <diagram name="Pagina-1" id="b1g1JZNboMbnEdH-Xfnv">
    <mxGraphModel>
      <root>
        <mxCell id="0" />
        <mxCell id="1" parent="0" />
      </root>
    </mxGraphModel>
  </diagram>
</mxfile>
